<svg width="282" height="138" viewBox="0 0 282 138" fill="none" xmlns="http://www.w3.org/2000/svg">
<rect width="282" height="138" fill="#1E1E1E"/>
<rect width="282" height="138" fill="white"/>
<g filter="url(#filter0_d_0_1)">
<path d="M73.7088 31.3795C64.4735 32.788 39.6621 42.8258 34.2927 49.004L30.0572 54.4825C30.0572 54.4825 61.4946 47.8409 66.9079 48.1252L93.9741 49.5464C93.9741 49.5464 139.567 27.0636 142.024 17.8638C144.481 8.66401 117.806 26.0925 112.776 29.803C107.745 33.5134 97.6052 36.7804 91.262 35.4108C84.9188 34.0412 82.944 29.971 73.7088 31.3795Z" fill="#791C7D"/>
</g>
<g filter="url(#filter1_d_0_1)">
<path d="M85.3722 70.0368C87.7026 69.6203 85.7609 52.041 85.7609 52.041C90.9828 54.0785 92.7593 52.1921 99.8008 50.3438C106.842 48.4954 98.3691 70.3175 98.3691 70.3175C97.0158 73.7455 96.6089 76.7215 97.9804 88.3133L97.6565 103.31C97.5161 109.808 99.8536 117.361 99.8536 117.361L76.1971 124.351L84.5191 109.528C84.5191 109.528 88.2559 98.6057 86.9074 91.5749C85.5589 84.5442 83.0418 70.4532 85.3722 70.0368Z" fill="#510F53"/>
</g>
<g filter="url(#filter2_d_0_1)">
<path d="M111.007 77.7559H106.455V75.2297H119.086V77.7559H114.557V90H111.007V77.7559ZM126.522 90.2276C122.623 90.2276 120.673 89.0366 120.673 86.6545V82.6945C120.673 81.3138 121.113 80.3124 121.993 79.6903C122.888 79.0683 124.261 78.7572 126.112 78.7572C127.857 78.7572 129.132 79.0607 129.936 79.6676C130.755 80.2593 131.165 81.2683 131.165 82.6945V85.38H124.019V86.3814C124.019 87.0186 124.246 87.4738 124.701 87.7469C125.157 88.02 125.976 88.1566 127.159 88.1566C128.252 88.1566 129.481 87.9972 130.846 87.6786V89.7952C129.496 90.0834 128.054 90.2276 126.522 90.2276ZM128.001 83.491V81.8979C128.001 81.5338 127.85 81.2607 127.546 81.0786C127.258 80.8966 126.765 80.8055 126.067 80.8055C125.263 80.8055 124.724 80.8966 124.451 81.0786C124.163 81.2759 124.019 81.549 124.019 81.8979V83.491H128.001ZM139.076 90.2276C138.499 90.2276 138.044 90.2124 137.71 90.1821C137.376 90.1669 136.967 90.129 136.481 90.0683C135.996 90.0076 135.593 89.9014 135.275 89.7497C134.971 89.5979 134.653 89.3703 134.319 89.0669C133.697 88.551 133.386 87.671 133.386 86.4269V82.7628C133.386 81.7614 133.613 80.9269 134.069 80.2593C134.236 80.0166 134.478 79.7966 134.797 79.5993C135.131 79.3869 135.465 79.22 135.798 79.0986C136.071 79.0076 136.436 78.9317 136.891 78.871C137.346 78.8103 137.748 78.7724 138.097 78.7572H139.303C140.153 78.7572 141.268 78.8938 142.649 79.1669V81.3517C141.086 80.9876 139.887 80.8055 139.053 80.8055C137.52 80.8055 136.754 81.3214 136.754 82.3531V86.4041C136.754 87.5724 137.596 88.1566 139.28 88.1566C140.1 88.1566 141.276 87.9897 142.808 87.6559V89.8407C141.427 90.0986 140.183 90.2276 139.076 90.2276ZM144.684 74.069H148.007V80.3276C148.219 79.2807 149.38 78.7572 151.489 78.7572C152.9 78.7572 153.886 79.0152 154.447 79.531C155.024 80.0317 155.312 80.8283 155.312 81.9207V90H151.989V82.3076C151.989 81.8828 151.944 81.5717 151.853 81.3745C151.777 81.1621 151.618 81.0179 151.375 80.9421C151.132 80.851 150.745 80.8055 150.214 80.8055C149.562 80.8055 149.084 80.8434 148.78 80.9193C148.477 80.9952 148.272 81.1393 148.166 81.3517C148.06 81.549 148.007 81.8676 148.007 82.3076V90H144.684V74.069ZM168.38 90.2276C166.969 90.2276 165.224 90.091 163.145 89.8179V87.1097C165.725 87.5041 167.485 87.7014 168.425 87.7014C170.398 87.7014 171.384 87.1931 171.384 86.1766V85.2207C171.384 84.7352 171.24 84.3634 170.952 84.1055C170.679 83.8476 170.178 83.7186 169.45 83.7186H167.72C164.473 83.7186 162.85 82.429 162.85 79.8497V78.7572C162.85 77.4676 163.388 76.5193 164.465 75.9124C165.543 75.3055 167.25 75.0021 169.586 75.0021C170.8 75.0021 172.34 75.1007 174.206 75.2979V77.9379C171.915 77.6648 170.337 77.5283 169.472 77.5283C168.274 77.5283 167.47 77.6269 167.06 77.8241C166.62 78.0366 166.4 78.3703 166.4 78.8255V79.8724C166.4 80.6462 167.052 81.0331 168.357 81.0331H170.132C171.817 81.0331 173.038 81.3441 173.797 81.9662C174.555 82.5883 174.934 83.5366 174.934 84.811V85.7897C174.934 87.5497 174.305 88.7407 173.045 89.3628C172.439 89.6814 171.763 89.9014 171.02 90.0228C170.292 90.1593 169.412 90.2276 168.38 90.2276ZM177.266 74.069H180.589V90H177.266V74.069ZM180.725 83.8097L184.344 78.9848H188.145L184.321 83.7869L188.463 90H184.708L180.725 83.8097ZM189.648 75.0021H192.97V77.6876H189.648V75.0021ZM189.648 78.9848H192.97V90H189.648V78.9848ZM196.071 74.069H199.393V90H196.071V74.069ZM202.494 74.069H205.816V90H202.494V74.069ZM212.945 90.2276C211.762 90.2276 210.313 90.1138 208.598 89.8862V87.6786C210.707 87.9972 212.171 88.1566 212.991 88.1566C213.689 88.1566 214.204 88.0883 214.538 87.9517C214.872 87.8152 215.039 87.5648 215.039 87.2007V86.5179C215.039 86.1386 214.933 85.8731 214.72 85.7214C214.508 85.5545 214.091 85.471 213.469 85.471H212.035C210.866 85.471 209.964 85.2434 209.326 84.7883C208.689 84.3179 208.371 83.6352 208.371 82.74V81.3972C208.371 80.4414 208.826 79.7662 209.736 79.3717C210.646 78.9621 212.02 78.7572 213.855 78.7572C214.584 78.7572 215.889 78.8255 217.77 78.9621V81.0786C215.403 80.8966 214.068 80.8055 213.764 80.8055C212.869 80.8055 212.285 80.8662 212.012 80.9876C211.769 81.1241 211.648 81.3745 211.648 81.7386V82.3303C211.648 82.5276 211.746 82.7021 211.944 82.8538C212.141 82.9903 212.429 83.0586 212.809 83.0586H214.265C216.966 83.0586 218.316 83.9386 218.316 85.6986V87.0869C218.316 87.6179 218.217 88.0807 218.02 88.4752C217.823 88.8697 217.565 89.1807 217.246 89.4083C216.943 89.6207 216.549 89.7876 216.063 89.909C215.593 90.0303 215.1 90.1138 214.584 90.1593C214.113 90.2048 213.567 90.2276 212.945 90.2276Z" fill="url(#paint0_linear_0_1)"/>
</g>
<defs>
<filter id="filter0_d_0_1" x="30.0572" y="15.1155" width="118.226" height="43.467" filterUnits="userSpaceOnUse" color-interpolation-filters="sRGB">
<feFlood flood-opacity="0" result="BackgroundImageFix"/>
<feColorMatrix in="SourceAlpha" type="matrix" values="0 0 0 0 0 0 0 0 0 0 0 0 0 0 0 0 0 0 127 0" result="hardAlpha"/>
<feOffset dx="4" dy="2"/>
<feGaussianBlur stdDeviation="1.05"/>
<feComposite in2="hardAlpha" operator="out"/>
<feColorMatrix type="matrix" values="0 0 0 0 0.152778 0 0 0 0 0.0227044 0 0 0 0 0.146274 0 0 0 0.25 0"/>
<feBlend mode="normal" in2="BackgroundImageFix" result="effect1_dropShadow_0_1"/>
<feBlend mode="normal" in="SourceGraphic" in2="effect1_dropShadow_0_1" result="shape"/>
</filter>
<filter id="filter1_d_0_1" x="76.1971" y="50.2326" width="33.3009" height="81.0187" filterUnits="userSpaceOnUse" color-interpolation-filters="sRGB">
<feFlood flood-opacity="0" result="BackgroundImageFix"/>
<feColorMatrix in="SourceAlpha" type="matrix" values="0 0 0 0 0 0 0 0 0 0 0 0 0 0 0 0 0 0 127 0" result="hardAlpha"/>
<feOffset dx="4" dy="4"/>
<feGaussianBlur stdDeviation="1.45"/>
<feComposite in2="hardAlpha" operator="out"/>
<feColorMatrix type="matrix" values="0 0 0 0 0 0 0 0 0 0 0 0 0 0 0 0 0 0 0.25 0"/>
<feBlend mode="normal" in2="BackgroundImageFix" result="effect1_dropShadow_0_1"/>
<feBlend mode="normal" in="SourceGraphic" in2="effect1_dropShadow_0_1" result="shape"/>
</filter>
<filter id="filter2_d_0_1" x="104.976" y="74.069" width="117.095" height="23.3276" filterUnits="userSpaceOnUse" color-interpolation-filters="sRGB">
<feFlood flood-opacity="0" result="BackgroundImageFix"/>
<feColorMatrix in="SourceAlpha" type="matrix" values="0 0 0 0 0 0 0 0 0 0 0 0 0 0 0 0 0 0 127 0" result="hardAlpha"/>
<feOffset dx="1.13793" dy="4.55172"/>
<feGaussianBlur stdDeviation="1.30862"/>
<feComposite in2="hardAlpha" operator="out"/>
<feColorMatrix type="matrix" values="0 0 0 0 0.152778 0 0 0 0 0.0227044 0 0 0 0 0.146274 0 0 0 0.25 0"/>
<feBlend mode="normal" in2="BackgroundImageFix" result="effect1_dropShadow_0_1"/>
<feBlend mode="normal" in="SourceGraphic" in2="effect1_dropShadow_0_1" result="shape"/>
</filter>
<linearGradient id="paint0_linear_0_1" x1="106" y1="85.5" x2="232.31" y2="85.5" gradientUnits="userSpaceOnUse">
<stop stop-color="#1B141C"/>
<stop offset="1" stop-color="#791C7D"/>
</linearGradient>
</defs>
</svg>
